<?xml version="1.0" encoding="UTF-8" standalone="no"?>
<!-- Created with Inkscape (http://www.inkscape.org/) -->

<svg
   xmlns:dc="http://purl.org/dc/elements/1.1/"
   xmlns:cc="http://creativecommons.org/ns#"
   xmlns:rdf="http://www.w3.org/1999/02/22-rdf-syntax-ns#"
   xmlns:svg="http://www.w3.org/2000/svg"
   xmlns="http://www.w3.org/2000/svg"
   xmlns:sodipodi="http://sodipodi.sourceforge.net/DTD/sodipodi-0.dtd"
   xmlns:inkscape="http://www.inkscape.org/namespaces/inkscape"
   sodipodi:docname="oVirt-logo.svg"
   inkscape:export-filename="./oVirt-logo.png"
   height="40"
   sodipodi:version="0.32"
   width="90"
   inkscape:export-xdpi="90"
   version="1.0"
   inkscape:output_extension="org.inkscape.output.svg.inkscape"
   inkscape:export-ydpi="90"
   inkscape:version="0.48.2 r9819"
   id="svg2">
  <sodipodi:namedview
     fit-margin-left="0"
     inkscape:showpageshadow="false"
     inkscape:zoom="1"
     borderopacity="0.42352941"
     inkscape:current-layer="svg2"
     inkscape:cx="144.21603"
     inkscape:cy="-33.343095"
     inkscape:window-maximized="1"
     showgrid="true"
     fit-margin-right="0"
     inkscape:guide-bbox="true"
     showguides="false"
     bordercolor="#666666"
     inkscape:window-x="1366"
     guidetolerance="10"
     objecttolerance="10"
     inkscape:window-y="27"
     fit-margin-bottom="0"
     inkscape:window-width="1920"
     inkscape:pageopacity="1"
     inkscape:pageshadow="2"
     pagecolor="#ffffff"
     gridtolerance="10000"
     inkscape:document-units="px"
     inkscape:window-height="1020"
     showborder="true"
     fit-margin-top="0"
     id="namedview4">
    <sodipodi:guide
       position="-35,-1533"
       orientation="1,0"
       id="guide6" />
    <sodipodi:guide
       position="-25,-1533"
       orientation="1,0"
       id="guide8" />
    <sodipodi:guide
       position="35,-1533"
       orientation="1,0"
       id="guide10" />
    <sodipodi:guide
       position="45,-1533"
       orientation="1,0"
       id="guide12" />
    <sodipodi:guide
       position="55,-1533"
       orientation="1,0"
       id="guide14" />
    <sodipodi:guide
       position="115,-1533"
       orientation="1,0"
       id="guide16" />
    <sodipodi:guide
       position="125,-1533"
       orientation="1,0"
       id="guide18" />
    <sodipodi:guide
       position="135,-1533"
       orientation="1,0"
       id="guide20" />
    <sodipodi:guide
       position="195,-1533"
       orientation="1,0"
       id="guide22" />
    <sodipodi:guide
       position="205,-1533"
       orientation="1,0"
       id="guide24" />
    <sodipodi:guide
       position="215,-1533"
       orientation="1,0"
       id="guide26" />
    <sodipodi:guide
       position="275,-1533"
       orientation="1,0"
       id="guide28" />
    <sodipodi:guide
       position="285,-1533"
       orientation="1,0"
       id="guide30" />
    <sodipodi:guide
       position="295,-1533"
       orientation="1,0"
       id="guide32" />
    <sodipodi:guide
       position="355,-1533"
       orientation="1,0"
       id="guide34" />
    <sodipodi:guide
       position="365,-1533"
       orientation="1,0"
       id="guide36" />
    <sodipodi:guide
       position="375,-1533"
       orientation="1,0"
       id="guide38" />
    <sodipodi:guide
       position="435,-1533"
       orientation="1,0"
       id="guide40" />
    <sodipodi:guide
       position="445,-1533"
       orientation="1,0"
       id="guide42" />
    <sodipodi:guide
       position="455,-1533"
       orientation="1,0"
       id="guide44" />
    <sodipodi:guide
       position="515,-1533"
       orientation="1,0"
       id="guide46" />
    <sodipodi:guide
       position="525,-1533"
       orientation="1,0"
       id="guide48" />
    <sodipodi:guide
       position="535,-1533"
       orientation="1,0"
       id="guide50" />
    <sodipodi:guide
       position="595,-1533"
       orientation="1,0"
       id="guide52" />
    <sodipodi:guide
       position="605,-1533"
       orientation="1,0"
       id="guide54" />
    <sodipodi:guide
       position="615,-1533"
       orientation="1,0"
       id="guide56" />
    <sodipodi:guide
       position="675,-1533"
       orientation="1,0"
       id="guide58" />
    <sodipodi:guide
       position="685,-1533"
       orientation="1,0"
       id="guide60" />
    <sodipodi:guide
       position="695,-1533"
       orientation="1,0"
       id="guide62" />
    <sodipodi:guide
       position="755,-1533"
       orientation="1,0"
       id="guide64" />
    <sodipodi:guide
       position="765,-1533"
       orientation="1,0"
       id="guide66" />
    <sodipodi:guide
       position="775,-1533"
       orientation="1,0"
       id="guide68" />
    <sodipodi:guide
       position="835,-1533"
       orientation="1,0"
       id="guide70" />
    <sodipodi:guide
       position="845,-1533"
       orientation="1,0"
       id="guide72" />
    <sodipodi:guide
       position="855,-1533"
       orientation="1,0"
       id="guide74" />
    <sodipodi:guide
       position="915,-1533"
       orientation="1,0"
       id="guide76" />
    <sodipodi:guide
       position="925,-1533"
       orientation="1,0"
       id="guide78" />
    <inkscape:grid
       opacity="0.03921569"
       dotted="false"
       visible="true"
       color="#0000ff"
       enabled="true"
       originy="0px"
       originx="2.7755576e-17px"
       spacingy="1px"
       spacingx="1px"
       snapvisiblegridlinesonly="true"
       empcolor="#c9c9eb"
       empopacity="0.11372549"
       type="xygrid"
       empspacing="5"
       id="grid80" />
  </sodipodi:namedview>
  <metadata
     id="metadata82">
    <rdf:RDF>
      <cc:Work
         rdf:about="">
        <dc:format>image/svg+xml</dc:format>
        <dc:type
           rdf:resource="http://purl.org/dc/dcmitype/StillImage" />
        <dc:title></dc:title>
      </cc:Work>
    </rdf:RDF>
  </metadata>
  <defs
     id="defs84" />
  <g
     inkscape:label="art"
     transform="translate(-65,553)"
     inkscape:groupmode="layer"
     id="g86">
    <g
       id="g6151">
      <path
         style="fill:#74c227;fill-opacity:0.75294118"
         id="path92"
         inkscape:connector-curvature="0"
         d="m 80.268575,-537.46249 c -5.545479,0 -10.041226,4.35458 -10.041226,9.72269 0,5.36811 4.495747,9.71182 10.041226,9.71182 5.545478,0 10.030366,-4.34371 10.030366,-9.71182 0,-5.36811 -4.484888,-9.72269 -10.030366,-9.72269 z m 0,1.53912 c 3.505017,0 6.341826,3.67045 6.341826,8.18429 0,4.51385 -2.835361,8.17343 -6.341826,8.17343 -3.505018,0 -6.352686,-3.65596 -6.352686,-8.17343 0,-4.51384 2.847306,-8.18429 6.352686,-8.18429 z" />
      <path
         d="m 148.42873,-535.43542 0,-1.50076 -5.788,0 0,-7.20333 -0.64323,0 c -0.51473,2.57257 -1.24339,5.48757 -2.74415,7.20333 h -3.2158 v 1.50076 h 3.2158 v 13.20852 c 0,3.81523 3.04459,4.24598 4.37268,4.24598 l 4.45955,-1.9297 h -2.14399 c -1.71504,0 -3.30159,-0.90059 -3.30159,-3.77179 v -11.74975 h 5.78801 m -21.93505,-1.99413 -6.045,0.94331 c 1.41496,0.98638 3.04458,1.97241 3.04458,2.87301 v 15.17767 h 3.47316 v -12.13345 c 0,-2.91572 1.71505,-3.90211 2.87301,-3.90211 0.72902,0 1.45804,-0.12864 2.87301,0.51473 0.51436,0.42894 0.47165,1.54347 0.64323,1.54347 l 1.75812,-3.17309 c 0,-0.8148 -0.51473,-1.8439 -1.9297,-1.8439 -1.71504,0 -3.13001,0.81481 -6.21875,3.04458 l -0.47166,-3.04458 m -15.384,0.9415 c 0.89807,0.77173 3.08585,1.60029 3.13001,2.873 v 15.17767 h 3.51624 v -18.77933 l -0.0429,-0.2144 -6.60245,0.94331 m 7.31916,-6.69294 c 0,1.29551 -1.05009,2.3456 -2.34561,2.3456 -1.29551,0 -2.3456,-1.05009 -2.3456,-2.3456 0,-1.29552 1.05009,-2.34561 2.3456,-2.34561 1.29552,0 2.34561,1.05009 2.34561,2.34561 z M 86.062358,-546 c 0.700359,0.47166 1.400715,0.94333 2.10107,1.415 l 5.531394,13.42114 4.716694,12.73506 2.615624,0 5.35987,-13.72128 c 1.71516,-4.45942 4.41655,-10.8484 5.48852,-12.99234 l 0.94334,-0.85758 -2.74426,0 0.0429,0.21439 -4.24502,11.62022 -4.75958,11.44869 -0.55742,-0.0858 -4.073509,-10.24808 -4.759573,-12.2634 c -0.04288,-0.25728 -0.04288,-0.47167 -0.04288,-0.68606 l -5.61715,0"
         style="text-align:start;fill:#4e9a06;stroke-width:0;stroke-miterlimit:4"
         id="path100" />
    </g>
  </g>
</svg>
